<?xml version="1.0" encoding="UTF-8"?>
<svg xmlns="http://www.w3.org/2000/svg" xmlns:xlink="http://www.w3.org/1999/xlink" width="24pt" height="24pt" viewBox="0 0 24 24" version="1.1">
<defs>
<clipPath id="clip1">
  <path fill="#FFF" d="M 1 2 L 24 2 L 24 23 L 1 23 Z M 1 2 "/>
</clipPath>
<clipPath id="clip2">
  <path fill="#FFF" d="M 12.445312 2 C 13.496094 2 14.46875 2.546875 15.015625 3.449219 L 23.492188 17.601562 C 24.027344 18.527344 24.027344 19.664062 23.5 20.589844 C 22.972656 21.515625 21.992188 22.089844 20.917969 22.101562 L 3.964844 22.101562 C 2.898438 22.089844 1.921875 21.515625 1.394531 20.589844 C 0.863281 19.664062 0.867188 18.527344 1.410156 17.589844 L 9.878906 3.449219 C 10.425781 2.546875 11.398438 2 12.445312 2 Z M 12.445312 4 C 12.097656 4 11.773438 4.183594 11.59375 4.480469 L 3.132812 18.601562 C 2.957031 18.910156 2.953125 19.289062 3.128906 19.597656 C 3.304688 19.90625 3.632812 20.097656 3.976562 20.101562 L 20.90625 20.101562 C 21.261719 20.097656 21.585938 19.90625 21.765625 19.597656 C 21.941406 19.289062 21.9375 18.910156 21.769531 18.617188 L 13.300781 4.480469 C 13.121094 4.183594 12.796875 4 12.445312 4 Z M 11.738281 15.394531 C 12.128906 15.003906 12.761719 15.003906 13.152344 15.394531 C 13.542969 15.785156 13.542969 16.417969 13.152344 16.808594 C 12.761719 17.199219 12.128906 17.199219 11.738281 16.808594 C 11.347656 16.417969 11.347656 15.785156 11.738281 15.394531 Z M 12.445312 8.101562 C 13 8.101562 13.445312 8.550781 13.445312 9.101562 L 13.445312 13.101562 C 13.445312 13.65625 13 14.101562 12.445312 14.101562 C 11.894531 14.101562 11.445312 13.65625 11.445312 13.101562 L 11.445312 9.101562 C 11.445312 8.550781 11.894531 8.101562 12.445312 8.101562 Z M 12.445312 8.101562 "/>
</clipPath>
<clipPath id="clip4">
  <path fill="#FFF" d="M 11.445312 0 C 12.496094 0 13.46875 0.546875 14.015625 1.449219 L 22.492188 15.601562 C 23.027344 16.527344 23.027344 17.664062 22.5 18.589844 C 21.972656 19.515625 20.992188 20.089844 19.917969 20.101562 L 2.964844 20.101562 C 1.898438 20.089844 0.921875 19.515625 0.394531 18.589844 C -0.136719 17.664062 -0.132812 16.527344 0.410156 15.589844 L 8.878906 1.449219 C 9.425781 0.546875 10.398438 0 11.445312 0 Z M 11.445312 2 C 11.097656 2 10.773438 2.183594 10.59375 2.480469 L 2.132812 16.601562 C 1.957031 16.910156 1.953125 17.289062 2.128906 17.597656 C 2.304688 17.90625 2.632812 18.097656 2.976562 18.101562 L 19.90625 18.101562 C 20.261719 18.097656 20.585938 17.90625 20.765625 17.597656 C 20.941406 17.289062 20.9375 16.910156 20.769531 16.617188 L 12.300781 2.480469 C 12.121094 2.183594 11.796875 2 11.445312 2 Z M 10.738281 13.394531 C 11.128906 13.003906 11.761719 13.003906 12.152344 13.394531 C 12.542969 13.785156 12.542969 14.417969 12.152344 14.808594 C 11.761719 15.199219 11.128906 15.199219 10.738281 14.808594 C 10.347656 14.417969 10.347656 13.785156 10.738281 13.394531 Z M 11.445312 6.101562 C 12 6.101562 12.445312 6.550781 12.445312 7.101562 L 12.445312 11.101562 C 12.445312 11.65625 12 12.101562 11.445312 12.101562 C 10.894531 12.101562 10.445312 11.65625 10.445312 11.101562 L 10.445312 7.101562 C 10.445312 6.550781 10.894531 6.101562 11.445312 6.101562 Z M 11.445312 6.101562 "/>
</clipPath>
<clipPath id="clip3">
  <rect fill="#FFFF" x="0" y="0" width="23" height="21"/>
</clipPath>
<g id="surface5" clip-path="url(#clip3)">
<g clip-path="url(#clip4)" clip-rule="nonzero">
<rect x="0" y="0" width="23" height="21" style="fill:rgb(100%,100%,100%);fill-opacity:1;stroke:none;"/>
<rect x="0" y="0" width="23" height="21" style="fill:rgb(100%,100%,100%);fill-opacity:1;stroke:none;"/>
</g>
</g>
</defs>
<g id="surface1">
<g clip-path="url(#clip1)" clip-rule="nonzero">
<g clip-path="url(#clip2)" clip-rule="nonzero">
<use xlink:href="#surface5" transform="matrix(1,0,0,1,1,2)"/>
</g>
</g>
</g>
</svg>
