<?xml version="1.0" encoding="UTF-8"?>
<svg xmlns="http://www.w3.org/2000/svg" xmlns:xlink="http://www.w3.org/1999/xlink" width="24pt" height="24pt" viewBox="0 0 24 24" version="1.1">
<defs>
<clipPath id="clip1">
  <path d="M 4 2 L 20 2 L 20 22 L 4 22 Z M 4 2 "/>
</clipPath>
<clipPath id="clip2">
  <path d="M 18 19.058594 L 18 5 C 18 4.449219 17.550781 4 17 4 L 7 4 C 6.449219 4 6 4.449219 6 5 L 6 19.058594 L 11.417969 15.1875 C 11.765625 14.9375 12.234375 14.9375 12.582031 15.1875 Z M 12 17.230469 L 5.582031 21.8125 C 4.917969 22.285156 4 21.8125 4 21 L 4 5 C 4 3.34375 5.34375 2 7 2 L 17 2 C 18.65625 2 20 3.34375 20 5 L 20 21 C 20 21.8125 19.082031 22.285156 18.417969 21.8125 Z M 12 17.230469 "/>
</clipPath>
<clipPath id="clip4">
  <path d="M 14 17.058594 L 14 3 C 14 2.449219 13.550781 2 13 2 L 3 2 C 2.449219 2 2 2.449219 2 3 L 2 17.058594 L 7.417969 13.1875 C 7.765625 12.9375 8.234375 12.9375 8.582031 13.1875 Z M 8 15.230469 L 1.582031 19.8125 C 0.917969 20.285156 0 19.8125 0 19 L 0 3 C 0 1.34375 1.34375 0 3 0 L 13 0 C 14.65625 0 16 1.34375 16 3 L 16 19 C 16 19.8125 15.082031 20.285156 14.417969 19.8125 Z M 8 15.230469 "/>
</clipPath>
<clipPath id="clip3">
  <rect width="16" height="20"/>
</clipPath>
<g id="surface4" clip-path="url(#clip3)">
<g clip-path="url(#clip4)" clip-rule="nonzero">
<rect x="0" y="0" width="16" height="20" style="fill:rgb(0%,0%,0%);fill-opacity:1;stroke:none;"/>
<rect x="0" y="0" width="16" height="20" style="fill:rgb(0%,0%,0%);fill-opacity:1;stroke:none;"/>
</g>
</g>
</defs>
<g id="surface1">
<g clip-path="url(#clip1)" clip-rule="nonzero">
<g clip-path="url(#clip2)" clip-rule="nonzero">
<use xlink:href="#surface4" transform="matrix(1,0,0,1,4,2)"/>
</g>
</g>
</g>
</svg>
