<?xml version="1.0" encoding="UTF-8"?>
<svg xmlns="http://www.w3.org/2000/svg" xmlns:xlink="http://www.w3.org/1999/xlink" width="20pt" height="17pt" viewBox="0 0 20 17" version="1.1">
<defs>
<clipPath id="clip1">
  <path d="M 0 0 L 20 0 L 20 14 L 0 14 Z M 0 0 "/>
</clipPath>
<clipPath id="clip2">
  <path d="M 16.667969 0.5 C 18.046875 0.5 19.167969 1.621094 19.167969 3 L 19.167969 11.332031 C 19.167969 12.714844 18.046875 13.832031 16.667969 13.832031 L 3.332031 13.832031 C 1.953125 13.832031 0.832031 12.714844 0.832031 11.332031 L 0.832031 3 C 0.832031 1.621094 1.953125 0.5 3.332031 0.5 Z M 16.667969 2.167969 L 3.332031 2.167969 C 2.875 2.167969 2.5 2.539062 2.5 3 L 2.5 11.332031 C 2.5 11.792969 2.875 12.167969 3.332031 12.167969 L 16.667969 12.167969 C 17.125 12.167969 17.5 11.792969 17.5 11.332031 L 17.5 3 C 17.5 2.539062 17.125 2.167969 16.667969 2.167969 Z M 16.667969 2.167969 "/>
</clipPath>
<clipPath id="clip4">
  <path d="M 16.667969 0.5 C 18.046875 0.5 19.167969 1.621094 19.167969 3 L 19.167969 11.332031 C 19.167969 12.714844 18.046875 13.832031 16.667969 13.832031 L 3.332031 13.832031 C 1.953125 13.832031 0.832031 12.714844 0.832031 11.332031 L 0.832031 3 C 0.832031 1.621094 1.953125 0.5 3.332031 0.5 Z M 16.667969 2.167969 L 3.332031 2.167969 C 2.875 2.167969 2.5 2.539062 2.5 3 L 2.5 11.332031 C 2.5 11.792969 2.875 12.167969 3.332031 12.167969 L 16.667969 12.167969 C 17.125 12.167969 17.5 11.792969 17.5 11.332031 L 17.5 3 C 17.5 2.539062 17.125 2.167969 16.667969 2.167969 Z M 16.667969 2.167969 "/>
</clipPath>
<clipPath id="clip3">
  <rect x="0" y="0" width="20" height="14"/>
</clipPath>
<g id="surface5" clip-path="url(#clip3)">
<g clip-path="url(#clip4)" clip-rule="nonzero">
<rect x="0" y="0" width="20" height="14" style="fill:#ff4208;fill-opacity:1;stroke:none;"/>
</g>
</g>
<clipPath id="clip5">
  <path d="M 4 11 L 9 11 L 9 16 L 4 16 Z M 4 11 "/>
</clipPath>
<clipPath id="clip6" >
  <path d="M 6.25 15.5 C 7.402344 15.5 8.332031 14.566406 8.332031 13.417969 C 8.332031 12.265625 7.402344 11.332031 6.25 11.332031 C 5.097656 11.332031 4.167969 12.265625 4.167969 13.417969 C 4.167969 14.566406 5.097656 15.5 6.25 15.5 Z M 6.25 15.5 "/>
</clipPath>
<clipPath id="clip7">
  <path d="M 12 11 L 17 11 L 17 16 L 12 16 Z M 12 11 "/>
</clipPath>
<clipPath id="clip8">
  <path d="M 14.582031 15.5 C 15.734375 15.5 16.667969 14.566406 16.667969 13.417969 C 16.667969 12.265625 15.734375 11.332031 14.582031 11.332031 C 13.433594 11.332031 12.5 12.265625 12.5 13.417969 C 12.5 14.566406 13.433594 15.5 14.582031 15.5 Z M 14.582031 15.5 "/>
</clipPath>
</defs>
<g id="surface1">
<g clip-path="url(#clip1)" clip-rule="nonzero">
<g clip-path="url(#clip2)" clip-rule="nonzero">
<use xlink:href="#surface5"/>
</g>
</g>
<g clip-path="url(#clip5)" clip-rule="nonzero">
<g clip-path="url(#clip6)" clip-rule="evenodd">
<path style=" stroke:none;fill-rule:nonzero;fill:rgb(100%,100%,100%);fill-opacity:1;" d="M -0.832031 20.5 L 13.332031 20.5 L 13.332031 6.332031 L -0.832031 6.332031 Z M -0.832031 20.5 "/>
</g>
</g>
<path style="fill:none;stroke-width:1.5;stroke-linecap:butt;stroke-linejoin:miter;stroke:#ff4208;stroke-opacity:1;stroke-miterlimit:10;" d="M 2.083333 4.166667 C 3.235677 4.166667 4.165364 3.233073 4.165364 2.084636 C 4.165364 0.932292 3.235677 -0.00130175 2.083333 -0.00130175 C 0.930989 -0.00130175 0.00130175 0.932292 0.00130175 2.084636 C 0.00130175 3.233073 0.930989 4.166667 2.083333 4.166667 Z M 2.083333 4.166667 " transform="matrix(1,0,0,1,4.166667,11.333333)"/>
<g clip-path="url(#clip7)" clip-rule="nonzero">
<g clip-path="url(#clip8)" clip-rule="evenodd">
<path style=" stroke:none;fill-rule:nonzero;fill:rgb(100%,100%,100%);fill-opacity:1;" d="M 7.5 20.5 L 21.667969 20.5 L 21.667969 6.332031 L 7.5 6.332031 Z M 7.5 20.5 "/>
</g>
</g>
<path style="fill:none;stroke-width:1.5;stroke-linecap:butt;stroke-linejoin:miter;stroke:#ff4208;stroke-opacity:1;stroke-miterlimit:10;" d="M 2.082031 4.166667 C 3.234375 4.166667 4.167969 3.233073 4.167969 2.084636 C 4.167969 0.932292 3.234375 -0.00130175 2.082031 -0.00130175 C 0.933594 -0.00130175 0 0.932292 0 2.084636 C 0 3.233073 0.933594 4.166667 2.082031 4.166667 Z M 2.082031 4.166667 " transform="matrix(1,0,0,1,12.5,11.333333)"/>
</g>
</svg>
