<?xml version="1.0" encoding="UTF-8"?>
<svg xmlns="http://www.w3.org/2000/svg" xmlns:xlink="http://www.w3.org/1999/xlink" width="24pt" height="24pt" viewBox="0 0 24 24" version="1.1">
<defs>
<clipPath id="clip1">
  <path d="M 2 9 L 22 9 L 22 15 L 2 15 Z M 2 9 "/>
</clipPath>
<clipPath id="clip2">
  <path d="M 8 9 C 9.304688 9 10.417969 9.835938 10.828125 11 L 21 11 C 21.550781 11 22 11.449219 22 12 C 22 12.550781 21.550781 13 21 13 L 10.828125 13 C 10.417969 14.164063 9.304688 15 8 15 C 6.695313 15 5.582031 14.164063 5.171875 13 L 3 13 C 2.449219 13 2 12.550781 2 12 C 2 11.449219 2.449219 11 3 11 L 5.171875 11 C 5.582031 9.835938 6.695313 9 8 9 Z M 8 11 C 7.449219 11 7 11.449219 7 12 C 7 12.550781 7.449219 13 8 13 L 7.984375 13 L 8 13 C 8.003906 13 8.011719 13 8.015625 13 L 8 13 C 8.550781 13 9 12.550781 9 12 C 9 11.488281 8.613281 11.066406 8.117188 11.007813 Z M 8 11 "/>
</clipPath>
<clipPath id="clip3">
  <path d="M 2 15 L 22 15 L 22 21 L 2 21 Z M 2 15 "/>
</clipPath>
<clipPath id="clip4">
  <path d="M 16 15 C 17.304688 15 18.417969 15.835938 18.828125 17 L 21 17 C 21.550781 17 22 17.449219 22 18 C 22 18.550781 21.550781 19 21 19 L 18.828125 19 C 18.417969 20.164063 17.304688 21 16 21 C 14.695313 21 13.582031 20.164063 13.171875 19 L 3 19 C 2.449219 19 2 18.550781 2 18 C 2 17.449219 2.449219 17 3 17 L 13.171875 17 C 13.582031 15.835938 14.695313 15 16 15 Z M 16 17 L 15.882813 17.007813 C 15.386719 17.066406 15 17.488281 15 18 C 15 18.550781 15.449219 19 16 19 C 16.550781 19 17 18.550781 17 18 C 17 17.449219 16.550781 17 16 17 Z M 16 17 "/>
</clipPath>
<clipPath id="clip5">
  <path d="M 2 3 L 22 3 L 22 9 L 2 9 Z M 2 3 "/>
</clipPath>
<clipPath id="clip6">
  <path d="M 16 3 C 17.304688 3 18.417969 3.835938 18.828125 5 L 21 5 C 21.550781 5 22 5.449219 22 6 C 22 6.550781 21.550781 7 21 7 L 18.828125 7 C 18.417969 8.164063 17.304688 9 16 9 C 14.695313 9 13.582031 8.164063 13.171875 7 L 3 7 C 2.449219 7 2 6.550781 2 6 C 2 5.449219 2.449219 5 3 5 L 13.171875 5 C 13.582031 3.835938 14.695313 3 16 3 Z M 16 5 C 15.449219 5 15 5.449219 15 6 C 15 6.511719 15.386719 6.933594 15.882813 6.992188 L 16 7 C 16.550781 7 17 6.550781 17 6 C 17 5.488281 16.613281 5.066406 16.117188 5.007813 Z M 16 5 "/>
</clipPath>
</defs>
<g id="surface1">
<g clip-path="url(#clip1)" clip-rule="nonzero">
<g clip-path="url(#clip2)" clip-rule="evenodd">
<path style=" stroke:none;fill-rule:nonzero;fill:rgb(15.686035%,15.293884%,16.078186%);fill-opacity:1;" d="M -3 20 L 27 20 L 27 4 L -3 4 Z M -3 20 "/>
</g>
</g>
<g clip-path="url(#clip3)" clip-rule="nonzero">
<g clip-path="url(#clip4)" clip-rule="evenodd">
<path style=" stroke:none;fill-rule:nonzero;fill:rgb(15.686035%,15.293884%,16.078186%);fill-opacity:1;" d="M -3 26 L 27 26 L 27 10 L -3 10 Z M -3 26 "/>
</g>
</g>
<g clip-path="url(#clip5)" clip-rule="nonzero">
<g clip-path="url(#clip6)" clip-rule="evenodd">
<path style=" stroke:none;fill-rule:nonzero;fill:rgb(15.686035%,15.293884%,16.078186%);fill-opacity:1;" d="M -3 14 L 27 14 L 27 -2 L -3 -2 Z M -3 14 "/>
</g>
</g>
</g>
</svg>
