<?xml version="1.0" encoding="UTF-8"?>
<svg xmlns="http://www.w3.org/2000/svg" xmlns:xlink="http://www.w3.org/1999/xlink" width="32pt" height="12pt" viewBox="0 0 32 12" version="1.1">
<defs>
<clipPath id="clip1">
  <path d="M 0.214844 1.152344 C 3.707031 1.003906 7.160156 1.867188 10.277344 3.71875 C 12.835938 5.234375 13.941406 5.644531 15.070312 5.707031 C 15.25 5.714844 15.347656 5.71875 15.625 5.722656 L 15.90625 5.722656 L 15.90625 11.105469 C 15.300781 11.105469 15.136719 11.101562 14.777344 11.082031 C 12.652344 10.96875 10.769531 10.269531 7.527344 8.347656 C 5.300781 7.023438 2.648438 6.429688 0.214844 6.535156 Z M 15.90625 0.335938 C 19.398438 0.183594 22.617188 1.046875 25.734375 2.898438 C 28.292969 4.417969 29.398438 4.824219 30.527344 4.886719 C 30.757812 4.898438 30.855469 4.902344 31.363281 4.902344 L 31.363281 10.285156 C 30.757812 10.285156 30.597656 10.285156 30.234375 10.265625 C 28.109375 10.148438 26.226562 9.453125 22.984375 7.527344 C 20.757812 6.203125 18.339844 5.609375 15.90625 5.714844 Z M 15.90625 0.335938 "/>
</clipPath>
</defs>
<g id="surface1">
<g clip-path="url(#clip1)" clip-rule="nonzero">
<rect x="0" y="0" width="32" height="12" style="fill:rgb(100%,100%,100%);fill-opacity:1;stroke:none;"/>
</g>
</g>
</svg>
