<?xml version="1.0" encoding="UTF-8"?>
<svg xmlns="http://www.w3.org/2000/svg" xmlns:xlink="http://www.w3.org/1999/xlink" width="24pt" height="24pt" viewBox="0 0 24 24" version="1.1">
<defs>
<clipPath id="clip1">
  <path d="M 2 2 L 22 2 L 22 23 L 2 23 Z M 2 2 "/>
</clipPath>
<clipPath id="clip2">
  <path d="M 4.582031 19.417969 L 8.386719 18.152344 C 8.636719 18.066406 8.914062 18.085938 9.152344 18.207031 C 10.191406 18.730469 11.335938 19.003906 12.5 19 C 15.339844 19 17.9375 17.394531 19.210938 14.847656 C 19.734375 13.8125 20.003906 12.664062 20 11.503906 L 20.003906 11.054688 C 19.792969 7.25 16.753906 4.207031 13 4 L 12.5 4 C 11.335938 3.996094 10.191406 4.269531 9.148438 4.792969 C 6.609375 6.0625 5.003906 8.660156 5 11.503906 C 5 12.664062 5.269531 13.8125 5.792969 14.847656 C 5.914062 15.085938 5.933594 15.363281 5.851562 15.617188 Z M 22 11.5 C 22.003906 12.976562 21.660156 14.433594 20.996094 15.746094 C 19.386719 18.964844 16.101562 21 12.503906 21 C 11.167969 21.003906 9.851562 20.722656 8.636719 20.175781 L 3.316406 21.949219 C 2.535156 22.210938 1.792969 21.464844 2.054688 20.683594 L 3.824219 15.367188 C 3.28125 14.152344 3 12.832031 3 11.5 C 3.003906 7.902344 5.035156 4.613281 8.25 3.007812 C 9.570312 2.339844 11.027344 1.996094 12.5 2 L 13.058594 2 C 17.882812 2.269531 21.734375 6.121094 22 11 Z M 22 11.5 "/>
</clipPath>
<clipPath id="clip4">
  <path d="M 2.582031 17.417969 L 6.386719 16.152344 C 6.636719 16.066406 6.914062 16.085938 7.152344 16.207031 C 8.191406 16.730469 9.335938 17.003906 10.5 17 C 13.339844 17 15.9375 15.394531 17.210938 12.847656 C 17.734375 11.8125 18.003906 10.664062 18 9.503906 L 18.003906 9.054688 C 17.792969 5.25 14.753906 2.207031 11 2 L 10.5 2 C 9.335938 1.996094 8.191406 2.269531 7.148438 2.792969 C 4.609375 4.0625 3.003906 6.660156 3 9.503906 C 3 10.664062 3.269531 11.8125 3.792969 12.847656 C 3.914062 13.085938 3.933594 13.363281 3.851562 13.617188 Z M 20 9.5 C 20.003906 10.976562 19.660156 12.433594 18.996094 13.746094 C 17.386719 16.964844 14.101562 19 10.503906 19 C 9.167969 19.003906 7.851562 18.722656 6.636719 18.175781 L 1.316406 19.949219 C 0.535156 20.210938 -0.207031 19.464844 0.0546875 18.683594 L 1.824219 13.367188 C 1.28125 12.152344 1 10.832031 1 9.5 C 1.003906 5.902344 3.035156 2.613281 6.25 1.007812 C 7.570312 0.339844 9.027344 -0.00390625 10.5 0 L 11.058594 0 C 15.882812 0.269531 19.734375 4.121094 20 9 Z M 20 9.5 "/>
</clipPath>
<clipPath id="clip3">
  <rect x="0" y="0" width="20" height="21"/>
</clipPath>
<g id="surface5" clip-path="url(#clip3)">
<g clip-path="url(#clip4)" clip-rule="nonzero">
<rect x="0" y="0" width="20" height="21" style="fill:#ff4208;fill-opacity:1;stroke:none;"/>
<rect x="0" y="0" width="20" height="21" style="fill:#ff4208;fill-opacity:1;stroke:none;"/>
</g>
</g>
</defs>
<g id="surface1">
<g clip-path="url(#clip1)" clip-rule="nonzero">
<g clip-path="url(#clip2)" clip-rule="nonzero">
<use xlink:href="#surface5" transform="matrix(1,0,0,1,2,2)"/>
</g>
</g>
</g>
</svg>
