<?xml version="1.0" encoding="UTF-8"?>
<svg xmlns="http://www.w3.org/2000/svg" xmlns:xlink="http://www.w3.org/1999/xlink" width="24pt" height="24pt" viewBox="0 0 24 24" version="1.1">
<defs>
<clipPath id="clip1">
  <path d="M 3 2 L 21 2 L 21 22 L 3 22 Z M 3 2 "/>
</clipPath>
<clipPath id="clip2">
  <path d="M 16 14 C 18.761719 14 21 16.238281 21 19 L 21 21 C 21 21.550781 20.550781 22 20 22 C 19.449219 22 19 21.550781 19 21 L 19 19 C 19 17.34375 17.65625 16 16 16 L 8 16 C 6.34375 16 5 17.34375 5 19 L 5 21 C 5 21.550781 4.550781 22 4 22 C 3.449219 22 3 21.550781 3 21 L 3 19 C 3 16.238281 5.238281 14 8 14 Z M 12 2 C 14.761719 2 17 4.238281 17 7 C 17 9.761719 14.761719 12 12 12 C 9.238281 12 7 9.761719 7 7 C 7 4.238281 9.238281 2 12 2 Z M 12 4 C 10.34375 4 9 5.34375 9 7 C 9 8.65625 10.34375 10 12 10 C 13.65625 10 15 8.65625 15 7 C 15 5.34375 13.65625 4 12 4 Z M 12 4 "/>
</clipPath>
<clipPath id="clip4">
  <path d="M 13 12 C 15.761719 12 18 14.238281 18 17 L 18 19 C 18 19.550781 17.550781 20 17 20 C 16.449219 20 16 19.550781 16 19 L 16 17 C 16 15.34375 14.65625 14 13 14 L 5 14 C 3.34375 14 2 15.34375 2 17 L 2 19 C 2 19.550781 1.550781 20 1 20 C 0.449219 20 0 19.550781 0 19 L 0 17 C 0 14.238281 2.238281 12 5 12 Z M 9 0 C 11.761719 0 14 2.238281 14 5 C 14 7.761719 11.761719 10 9 10 C 6.238281 10 4 7.761719 4 5 C 4 2.238281 6.238281 0 9 0 Z M 9 2 C 7.34375 2 6 3.34375 6 5 C 6 6.65625 7.34375 8 9 8 C 10.65625 8 12 6.65625 12 5 C 12 3.34375 10.65625 2 9 2 Z M 9 2 "/>
</clipPath>
<clipPath id="clip3">
  <rect x="0" y="0" width="18" height="20"/>
</clipPath>
<g id="surface5" clip-path="url(#clip3)">
<g clip-path="url(#clip4)" clip-rule="nonzero">
<rect x="0" y="0" width="18" height="20" style="fill:rgb(0%,0%,0%);fill-opacity:1;stroke:none;"/>
</g>
</g>
</defs>
<g id="surface1">
<g clip-path="url(#clip1)" clip-rule="nonzero">
<g clip-path="url(#clip2)" clip-rule="nonzero">
<use xlink:href="#surface5" transform="matrix(1,0,0,1,3,2)"/>
</g>
</g>
</g>
</svg>
